<mxfile host="app.diagrams.net" agent="Mozilla/5.0 (X11; Linux x86_64) AppleWebKit/537.36 (KHTML, like Gecko) Chrome/131.0.0.0 Safari/537.36" version="26.2.4">
  <diagram name="Page-1" id="UQWio94iEB4IflkVGNqU">
    <mxGraphModel dx="944" dy="620" grid="1" gridSize="10" guides="1" tooltips="1" connect="1" arrows="1" fold="1" page="1" pageScale="1" pageWidth="850" pageHeight="1100" math="1" shadow="0">
      <root>
        <mxCell id="0" />
        <mxCell id="1" parent="0" />
        <mxCell id="Rfed7s4msLT5aDdd4w5D-1" value="&lt;font style=&quot;color: rgb(255, 255, 255);&quot;&gt;$$s_0$$&lt;/font&gt;" style="ellipse;whiteSpace=wrap;html=1;aspect=fixed;labelBackgroundColor=none;fillColor=#76608a;strokeColor=#432D57;fontColor=#ffffff;fontSize=21;" parent="1" vertex="1">
          <mxGeometry x="240" y="220" width="80" height="80" as="geometry" />
        </mxCell>
        <mxCell id="Rfed7s4msLT5aDdd4w5D-3" value="&lt;span&gt;$$s_1$$&lt;/span&gt;" style="ellipse;whiteSpace=wrap;html=1;aspect=fixed;labelBackgroundColor=none;fillColor=#006600;strokeColor=#006600;fontColor=#ffffff;fontSize=21;" parent="1" vertex="1">
          <mxGeometry x="470" y="220" width="80" height="80" as="geometry" />
        </mxCell>
        <mxCell id="Rfed7s4msLT5aDdd4w5D-5" value="" style="curved=1;endArrow=classic;html=1;rounded=0;entryX=0.5;entryY=0;entryDx=0;entryDy=0;labelBackgroundColor=none;strokeColor=#432D57;fontColor=#660033;endSize=12;fontSize=21;fillColor=#76608a;" parent="1" source="Rfed7s4msLT5aDdd4w5D-1" target="Rfed7s4msLT5aDdd4w5D-1" edge="1">
          <mxGeometry width="50" height="50" relative="1" as="geometry">
            <mxPoint x="160" y="180" as="sourcePoint" />
            <mxPoint x="210" y="130" as="targetPoint" />
            <Array as="points">
              <mxPoint x="210" y="250" />
              <mxPoint x="220" y="220" />
              <mxPoint x="250" y="190" />
              <mxPoint x="280" y="190" />
            </Array>
          </mxGeometry>
        </mxCell>
        <mxCell id="Rfed7s4msLT5aDdd4w5D-6" value="" style="curved=1;endArrow=classic;html=1;rounded=0;entryX=0.5;entryY=1;entryDx=0;entryDy=0;labelBackgroundColor=none;strokeColor=#432D57;fontColor=#660033;endSize=12;fontSize=21;fillColor=#76608a;" parent="1" source="Rfed7s4msLT5aDdd4w5D-1" target="Rfed7s4msLT5aDdd4w5D-3" edge="1">
          <mxGeometry width="50" height="50" relative="1" as="geometry">
            <mxPoint x="370" y="400" as="sourcePoint" />
            <mxPoint x="420" y="350" as="targetPoint" />
            <Array as="points">
              <mxPoint x="310" y="320" />
              <mxPoint x="380" y="320" />
              <mxPoint x="410" y="320" />
            </Array>
          </mxGeometry>
        </mxCell>
        <mxCell id="Rfed7s4msLT5aDdd4w5D-7" value="" style="curved=1;endArrow=classic;html=1;rounded=0;entryX=1;entryY=1;entryDx=0;entryDy=0;labelBackgroundColor=none;strokeColor=#005700;fontColor=#660033;endSize=12;fontSize=21;fillColor=#008a00;" parent="1" source="Rfed7s4msLT5aDdd4w5D-3" target="Rfed7s4msLT5aDdd4w5D-3" edge="1">
          <mxGeometry width="50" height="50" relative="1" as="geometry">
            <mxPoint x="578.2842712474644" y="231.71572875253554" as="sourcePoint" />
            <mxPoint x="578.2842712474644" y="288.2842712474644" as="targetPoint" />
            <Array as="points">
              <mxPoint x="560" y="230" />
              <mxPoint x="610" y="190" />
              <mxPoint x="610" y="240" />
              <mxPoint x="640" y="270" />
            </Array>
          </mxGeometry>
        </mxCell>
        <mxCell id="Rfed7s4msLT5aDdd4w5D-8" value="" style="curved=1;endArrow=classic;html=1;rounded=0;labelBackgroundColor=none;strokeColor=#005700;fontColor=#660033;endSize=12;fontSize=21;fillColor=#008a00;" parent="1" source="Rfed7s4msLT5aDdd4w5D-3" target="Rfed7s4msLT5aDdd4w5D-1" edge="1">
          <mxGeometry width="50" height="50" relative="1" as="geometry">
            <mxPoint x="350" y="200" as="sourcePoint" />
            <mxPoint x="400" y="150" as="targetPoint" />
            <Array as="points">
              <mxPoint x="400" y="200" />
              <mxPoint x="370" y="210" />
            </Array>
          </mxGeometry>
        </mxCell>
        <mxCell id="Rfed7s4msLT5aDdd4w5D-9" value="&lt;font&gt;$$c/0.3$$&lt;/font&gt;" style="text;html=1;align=center;verticalAlign=middle;whiteSpace=wrap;rounded=0;labelBackgroundColor=none;fontColor=#660033;fontSize=21;" parent="1" vertex="1">
          <mxGeometry x="210" y="150" width="60" height="30" as="geometry" />
        </mxCell>
        <mxCell id="Rfed7s4msLT5aDdd4w5D-10" value="&lt;font&gt;$$c/0.4$$&lt;/font&gt;" style="text;html=1;align=center;verticalAlign=middle;whiteSpace=wrap;rounded=0;labelBackgroundColor=none;fontColor=#660033;fontSize=21;" parent="1" vertex="1">
          <mxGeometry x="351" y="352" width="60" height="30" as="geometry" />
        </mxCell>
        <mxCell id="Rfed7s4msLT5aDdd4w5D-11" value="&lt;font&gt;$$c/0.1$$&lt;/font&gt;" style="text;html=1;align=center;verticalAlign=middle;whiteSpace=wrap;rounded=0;labelBackgroundColor=none;fontColor=#660033;fontSize=21;" parent="1" vertex="1">
          <mxGeometry x="617" y="220" width="60" height="30" as="geometry" />
        </mxCell>
        <mxCell id="Rfed7s4msLT5aDdd4w5D-12" value="&lt;font&gt;$$c/0.5$$&lt;/font&gt;" style="text;html=1;align=center;verticalAlign=middle;whiteSpace=wrap;rounded=0;labelBackgroundColor=none;fontColor=#660033;fontSize=21;" parent="1" vertex="1">
          <mxGeometry x="395" y="170" width="60" height="30" as="geometry" />
        </mxCell>
        <mxCell id="x6ladfpuTTRBFV2YgeAX-1" value="&lt;font&gt;$$a/0.6$$&lt;/font&gt;" style="text;html=1;align=center;verticalAlign=middle;whiteSpace=wrap;rounded=0;labelBackgroundColor=none;fontColor=#660033;fontSize=21;" parent="1" vertex="1">
          <mxGeometry x="210" y="120" width="60" height="30" as="geometry" />
        </mxCell>
        <mxCell id="x6ladfpuTTRBFV2YgeAX-2" value="&lt;font&gt;$$a/0.2$$&lt;/font&gt;" style="text;html=1;align=center;verticalAlign=middle;whiteSpace=wrap;rounded=0;labelBackgroundColor=none;fontColor=#660033;fontSize=21;" parent="1" vertex="1">
          <mxGeometry x="355" y="325" width="60" height="30" as="geometry" />
        </mxCell>
        <mxCell id="x6ladfpuTTRBFV2YgeAX-3" value="&lt;font&gt;$$a/0.3$$&lt;/font&gt;" style="text;html=1;align=center;verticalAlign=middle;whiteSpace=wrap;rounded=0;labelBackgroundColor=none;fontColor=#660033;fontSize=21;" parent="1" vertex="1">
          <mxGeometry x="395" y="140" width="60" height="30" as="geometry" />
        </mxCell>
        <mxCell id="x6ladfpuTTRBFV2YgeAX-4" value="&lt;font&gt;$$a/0.6$$&lt;/font&gt;" style="text;html=1;align=center;verticalAlign=middle;whiteSpace=wrap;rounded=0;labelBackgroundColor=none;fontColor=#660033;fontSize=21;" parent="1" vertex="1">
          <mxGeometry x="617" y="190" width="60" height="30" as="geometry" />
        </mxCell>
        <mxCell id="x6ladfpuTTRBFV2YgeAX-5" value="&lt;font&gt;$$a = \text{aggressive}$$&lt;/font&gt;" style="text;html=1;align=center;verticalAlign=middle;whiteSpace=wrap;rounded=0;fontSize=17;" parent="1" vertex="1">
          <mxGeometry x="80" y="180" width="60" height="30" as="geometry" />
        </mxCell>
        <mxCell id="x6ladfpuTTRBFV2YgeAX-7" value="&lt;font&gt;$$c = \text{cautious}$$&lt;/font&gt;" style="text;html=1;align=center;verticalAlign=middle;whiteSpace=wrap;rounded=0;fontSize=17;" parent="1" vertex="1">
          <mxGeometry x="80" y="220" width="60" height="30" as="geometry" />
        </mxCell>
        <mxCell id="OBIsVEdsL1-ohBtn6REB-3" value="&lt;font style=&quot;color: rgb(51, 51, 255);&quot;&gt;$$(1)$$&lt;/font&gt;" style="text;html=1;align=center;verticalAlign=middle;whiteSpace=wrap;rounded=0;labelBackgroundColor=none;fontColor=#660033;fontSize=21;" parent="1" vertex="1">
          <mxGeometry x="260" y="150" width="60" height="30" as="geometry" />
        </mxCell>
        <mxCell id="OBIsVEdsL1-ohBtn6REB-4" value="&lt;font style=&quot;color: rgb(51, 51, 255);&quot;&gt;$$(0)$$&lt;/font&gt;" style="text;html=1;align=center;verticalAlign=middle;whiteSpace=wrap;rounded=0;labelBackgroundColor=none;fontColor=#660033;fontSize=21;" parent="1" vertex="1">
          <mxGeometry x="260" y="120" width="60" height="30" as="geometry" />
        </mxCell>
        <mxCell id="OBIsVEdsL1-ohBtn6REB-6" value="&lt;font style=&quot;color: rgb(51, 51, 255);&quot;&gt;$$(1)$$&lt;/font&gt;" style="text;html=1;align=center;verticalAlign=middle;whiteSpace=wrap;rounded=0;labelBackgroundColor=none;fontColor=#660033;fontSize=21;" parent="1" vertex="1">
          <mxGeometry x="396" y="352" width="60" height="30" as="geometry" />
        </mxCell>
        <mxCell id="OBIsVEdsL1-ohBtn6REB-7" value="&lt;font style=&quot;color: rgb(51, 51, 255);&quot;&gt;$$(0)$$&lt;/font&gt;" style="text;html=1;align=center;verticalAlign=middle;whiteSpace=wrap;rounded=0;labelBackgroundColor=none;fontColor=#660033;fontSize=21;" parent="1" vertex="1">
          <mxGeometry x="395" y="325" width="60" height="30" as="geometry" />
        </mxCell>
        <mxCell id="OBIsVEdsL1-ohBtn6REB-8" value="&lt;font style=&quot;color: rgb(51, 51, 255);&quot;&gt;$$(0)$$&lt;/font&gt;" style="text;html=1;align=center;verticalAlign=middle;whiteSpace=wrap;rounded=0;labelBackgroundColor=none;fontColor=#660033;fontSize=21;" parent="1" vertex="1">
          <mxGeometry x="443" y="170" width="60" height="30" as="geometry" />
        </mxCell>
        <mxCell id="OBIsVEdsL1-ohBtn6REB-9" value="&lt;font style=&quot;color: rgb(51, 51, 255);&quot;&gt;$$(0)$$&lt;/font&gt;" style="text;html=1;align=center;verticalAlign=middle;whiteSpace=wrap;rounded=0;labelBackgroundColor=none;fontColor=#660033;fontSize=21;" parent="1" vertex="1">
          <mxGeometry x="667" y="220" width="60" height="30" as="geometry" />
        </mxCell>
        <mxCell id="OBIsVEdsL1-ohBtn6REB-10" value="&lt;font style=&quot;color: rgb(51, 51, 255);&quot;&gt;$$(2)$$&lt;/font&gt;" style="text;html=1;align=center;verticalAlign=middle;whiteSpace=wrap;rounded=0;labelBackgroundColor=none;fontColor=#660033;fontSize=21;" parent="1" vertex="1">
          <mxGeometry x="443" y="140" width="60" height="30" as="geometry" />
        </mxCell>
        <mxCell id="OBIsVEdsL1-ohBtn6REB-11" value="&lt;font style=&quot;color: rgb(51, 51, 255);&quot;&gt;$$(2)$$&lt;/font&gt;" style="text;html=1;align=center;verticalAlign=middle;whiteSpace=wrap;rounded=0;labelBackgroundColor=none;fontColor=#660033;fontSize=21;" parent="1" vertex="1">
          <mxGeometry x="667" y="190" width="60" height="30" as="geometry" />
        </mxCell>
        <mxCell id="OBIsVEdsL1-ohBtn6REB-12" value="&lt;font style=&quot;color: rgb(51, 51, 255);&quot;&gt;$$(~~): \text{reward}$$&lt;/font&gt;" style="text;html=1;align=center;verticalAlign=middle;whiteSpace=wrap;rounded=0;labelBackgroundColor=none;fontColor=#660033;fontSize=17;" parent="1" vertex="1">
          <mxGeometry x="30" y="260" width="160" height="30" as="geometry" />
        </mxCell>
        <mxCell id="z4GTo91w9JpMC3jlq2Rh-1" value="&lt;font style=&quot;color: rgb(255, 255, 255);&quot;&gt;$$s_2$$&lt;/font&gt;" style="ellipse;whiteSpace=wrap;html=1;aspect=fixed;labelBackgroundColor=none;fillColor=#E40035;strokeColor=#6F0000;fontColor=#ffffff;fontSize=21;" vertex="1" parent="1">
          <mxGeometry x="190" y="500" width="80" height="80" as="geometry" />
        </mxCell>
        <mxCell id="z4GTo91w9JpMC3jlq2Rh-2" value="" style="curved=1;endArrow=classic;html=1;rounded=0;exitX=0.5;exitY=0;exitDx=0;exitDy=0;entryX=0;entryY=1;entryDx=0;entryDy=0;fontSize=21;endSize=12;fillColor=#e51400;strokeColor=#B20000;" edge="1" parent="1" source="z4GTo91w9JpMC3jlq2Rh-1" target="Rfed7s4msLT5aDdd4w5D-1">
          <mxGeometry width="50" height="50" relative="1" as="geometry">
            <mxPoint x="180" y="400" as="sourcePoint" />
            <mxPoint x="230" y="350" as="targetPoint" />
            <Array as="points">
              <mxPoint x="210" y="420" />
              <mxPoint x="200" y="390" />
            </Array>
          </mxGeometry>
        </mxCell>
        <mxCell id="z4GTo91w9JpMC3jlq2Rh-3" value="&lt;font&gt;$$a/0.3$$&lt;/font&gt;" style="text;html=1;align=center;verticalAlign=middle;whiteSpace=wrap;rounded=0;labelBackgroundColor=none;fontColor=#660033;fontSize=21;" vertex="1" parent="1">
          <mxGeometry x="110" y="367" width="60" height="30" as="geometry" />
        </mxCell>
        <mxCell id="z4GTo91w9JpMC3jlq2Rh-4" value="&lt;font style=&quot;color: rgb(51, 51, 255);&quot;&gt;$$(2)$$&lt;/font&gt;" style="text;html=1;align=center;verticalAlign=middle;whiteSpace=wrap;rounded=0;labelBackgroundColor=none;fontColor=#660033;fontSize=21;" vertex="1" parent="1">
          <mxGeometry x="160" y="367" width="60" height="30" as="geometry" />
        </mxCell>
        <mxCell id="z4GTo91w9JpMC3jlq2Rh-5" value="&lt;font&gt;$$c/0.2$$&lt;/font&gt;" style="text;html=1;align=center;verticalAlign=middle;whiteSpace=wrap;rounded=0;labelBackgroundColor=none;fontColor=#660033;fontSize=21;" vertex="1" parent="1">
          <mxGeometry x="110" y="397" width="60" height="30" as="geometry" />
        </mxCell>
        <mxCell id="z4GTo91w9JpMC3jlq2Rh-6" value="&lt;font style=&quot;color: rgb(51, 51, 255);&quot;&gt;$$(0)$$&lt;/font&gt;" style="text;html=1;align=center;verticalAlign=middle;whiteSpace=wrap;rounded=0;labelBackgroundColor=none;fontColor=#660033;fontSize=21;" vertex="1" parent="1">
          <mxGeometry x="160" y="397" width="60" height="30" as="geometry" />
        </mxCell>
        <mxCell id="z4GTo91w9JpMC3jlq2Rh-7" value="" style="curved=1;endArrow=classic;html=1;rounded=0;exitX=1;exitY=0.5;exitDx=0;exitDy=0;fontSize=21;endSize=12;fillColor=#e51400;strokeColor=#B20000;" edge="1" parent="1" source="z4GTo91w9JpMC3jlq2Rh-1" target="Rfed7s4msLT5aDdd4w5D-3">
          <mxGeometry width="50" height="50" relative="1" as="geometry">
            <mxPoint x="380" y="500" as="sourcePoint" />
            <mxPoint x="430" y="450" as="targetPoint" />
            <Array as="points">
              <mxPoint x="500" y="500" />
              <mxPoint x="480" y="450" />
              <mxPoint x="530" y="350" />
            </Array>
          </mxGeometry>
        </mxCell>
        <mxCell id="z4GTo91w9JpMC3jlq2Rh-8" value="&lt;font&gt;$$a/0.7$$&lt;/font&gt;" style="text;html=1;align=center;verticalAlign=middle;whiteSpace=wrap;rounded=0;labelBackgroundColor=none;fontColor=#660033;fontSize=21;" vertex="1" parent="1">
          <mxGeometry x="510" y="367" width="60" height="30" as="geometry" />
        </mxCell>
        <mxCell id="z4GTo91w9JpMC3jlq2Rh-9" value="&lt;font&gt;$$c/0.8$$&lt;/font&gt;" style="text;html=1;align=center;verticalAlign=middle;whiteSpace=wrap;rounded=0;labelBackgroundColor=none;fontColor=#660033;fontSize=21;" vertex="1" parent="1">
          <mxGeometry x="511" y="377" width="60" height="48" as="geometry" />
        </mxCell>
        <mxCell id="z4GTo91w9JpMC3jlq2Rh-10" value="&lt;font style=&quot;color: rgb(51, 51, 255);&quot;&gt;$$(1)$$&lt;/font&gt;" style="text;html=1;align=center;verticalAlign=middle;whiteSpace=wrap;rounded=0;labelBackgroundColor=none;fontColor=#660033;fontSize=21;" vertex="1" parent="1">
          <mxGeometry x="557" y="395" width="60" height="30" as="geometry" />
        </mxCell>
        <mxCell id="z4GTo91w9JpMC3jlq2Rh-11" value="&lt;font style=&quot;color: rgb(51, 51, 255);&quot;&gt;$$(1)$$&lt;/font&gt;" style="text;html=1;align=center;verticalAlign=middle;whiteSpace=wrap;rounded=0;labelBackgroundColor=none;fontColor=#660033;fontSize=21;" vertex="1" parent="1">
          <mxGeometry x="557" y="365" width="60" height="30" as="geometry" />
        </mxCell>
        <mxCell id="z4GTo91w9JpMC3jlq2Rh-12" value="" style="curved=1;endArrow=classic;html=1;rounded=0;entryX=1;entryY=0;entryDx=0;entryDy=0;fontSize=21;endSize=12;fillColor=#76608a;strokeColor=#432D57;" edge="1" parent="1" source="Rfed7s4msLT5aDdd4w5D-1" target="z4GTo91w9JpMC3jlq2Rh-1">
          <mxGeometry width="50" height="50" relative="1" as="geometry">
            <mxPoint x="270" y="390" as="sourcePoint" />
            <mxPoint x="320" y="340" as="targetPoint" />
            <Array as="points">
              <mxPoint x="320" y="390" />
              <mxPoint x="310" y="410" />
            </Array>
          </mxGeometry>
        </mxCell>
        <mxCell id="z4GTo91w9JpMC3jlq2Rh-13" value="&lt;font&gt;$$c/0.3$$&lt;/font&gt;" style="text;html=1;align=center;verticalAlign=middle;whiteSpace=wrap;rounded=0;labelBackgroundColor=none;fontColor=#660033;fontSize=21;" vertex="1" parent="1">
          <mxGeometry x="285" y="479" width="60" height="30" as="geometry" />
        </mxCell>
        <mxCell id="z4GTo91w9JpMC3jlq2Rh-14" value="&lt;font style=&quot;color: rgb(51, 51, 255);&quot;&gt;$$(-1)$$&lt;/font&gt;" style="text;html=1;align=center;verticalAlign=middle;whiteSpace=wrap;rounded=0;labelBackgroundColor=none;fontColor=#660033;fontSize=21;" vertex="1" parent="1">
          <mxGeometry x="335" y="479" width="60" height="30" as="geometry" />
        </mxCell>
        <mxCell id="z4GTo91w9JpMC3jlq2Rh-15" value="&lt;font&gt;$$a/0.2$$&lt;/font&gt;" style="text;html=1;align=center;verticalAlign=middle;whiteSpace=wrap;rounded=0;labelBackgroundColor=none;fontColor=#660033;fontSize=21;" vertex="1" parent="1">
          <mxGeometry x="295" y="449" width="60" height="30" as="geometry" />
        </mxCell>
        <mxCell id="z4GTo91w9JpMC3jlq2Rh-16" value="&lt;font style=&quot;color: rgb(51, 51, 255);&quot;&gt;$$(3)$$&lt;/font&gt;" style="text;html=1;align=center;verticalAlign=middle;whiteSpace=wrap;rounded=0;labelBackgroundColor=none;fontColor=#660033;fontSize=21;" vertex="1" parent="1">
          <mxGeometry x="345" y="449" width="60" height="30" as="geometry" />
        </mxCell>
        <mxCell id="z4GTo91w9JpMC3jlq2Rh-18" value="" style="curved=1;endArrow=classic;html=1;rounded=0;exitX=0.734;exitY=0.946;exitDx=0;exitDy=0;exitPerimeter=0;entryX=1;entryY=1;entryDx=0;entryDy=0;endSize=12;fillColor=#008a00;strokeColor=#005700;" edge="1" parent="1" source="Rfed7s4msLT5aDdd4w5D-3" target="z4GTo91w9JpMC3jlq2Rh-1">
          <mxGeometry width="50" height="50" relative="1" as="geometry">
            <mxPoint x="660" y="480" as="sourcePoint" />
            <mxPoint x="710" y="430" as="targetPoint" />
            <Array as="points">
              <mxPoint x="650" y="340" />
              <mxPoint x="710" y="370" />
              <mxPoint x="640" y="520" />
              <mxPoint x="530" y="540" />
            </Array>
          </mxGeometry>
        </mxCell>
        <mxCell id="z4GTo91w9JpMC3jlq2Rh-19" value="&lt;font&gt;$$c/0.4$$&lt;/font&gt;" style="text;html=1;align=center;verticalAlign=middle;whiteSpace=wrap;rounded=0;labelBackgroundColor=none;fontColor=#660033;fontSize=21;" vertex="1" parent="1">
          <mxGeometry x="670" y="490" width="60" height="30" as="geometry" />
        </mxCell>
        <mxCell id="z4GTo91w9JpMC3jlq2Rh-20" value="&lt;font&gt;$$a/0.1$$&lt;/font&gt;" style="text;html=1;align=center;verticalAlign=middle;whiteSpace=wrap;rounded=0;labelBackgroundColor=none;fontColor=#660033;fontSize=21;" vertex="1" parent="1">
          <mxGeometry x="670" y="460" width="60" height="30" as="geometry" />
        </mxCell>
        <mxCell id="z4GTo91w9JpMC3jlq2Rh-21" value="&lt;font style=&quot;color: rgb(51, 51, 255);&quot;&gt;$$(-1)$$&lt;/font&gt;" style="text;html=1;align=center;verticalAlign=middle;whiteSpace=wrap;rounded=0;labelBackgroundColor=none;fontColor=#660033;fontSize=21;" vertex="1" parent="1">
          <mxGeometry x="720" y="490" width="60" height="30" as="geometry" />
        </mxCell>
        <mxCell id="z4GTo91w9JpMC3jlq2Rh-22" value="&lt;font style=&quot;color: rgb(51, 51, 255);&quot;&gt;$$(1)$$&lt;/font&gt;" style="text;html=1;align=center;verticalAlign=middle;whiteSpace=wrap;rounded=0;labelBackgroundColor=none;fontColor=#660033;fontSize=21;" vertex="1" parent="1">
          <mxGeometry x="720" y="460" width="60" height="30" as="geometry" />
        </mxCell>
      </root>
    </mxGraphModel>
  </diagram>
</mxfile>
